<?xml version="1.0" standalone="no"?>
<!DOCTYPE svg >
<svg version="1.0" xmlns="http://www.w3.org/2000/svg"
 width="322.000000pt" height="322.000000pt" viewBox="0 0 322.000000 322.000000"
 preserveAspectRatio="xMidYMid meet">

<g transform="translate(0.000000,322.000000) scale(0.100000,-0.100000)"
fill="#000000" stroke="none">
<path d="M249 3117 c-108 -73 -107 -212 1 -285 l35 -23 5 -222 5 -221 136
-111 137 -110 3 -270 4 -270 73 -84 72 -84 0 -197 0 -197 -37 -24 c-104 -68
-113 -202 -17 -275 32 -25 47 -29 99 -29 52 0 67 4 99 29 96 73 87 207 -17
275 l-37 24 0 218 0 218 -70 81 -70 81 0 530 0 529 53 -30 c28 -17 82 -47 119
-68 l68 -37 0 -50 c0 -48 -2 -51 -39 -72 -95 -55 -107 -194 -22 -266 112 -94
273 -19 273 129 0 55 -26 101 -75 133 -36 23 -37 27 -37 82 0 32 -4 68 -9 81
-6 16 -65 55 -189 126 -99 56 -186 102 -195 102 -38 0 -42 -25 -47 -297 l-5
-263 -92 76 -93 75 0 193 0 193 37 24 c61 40 78 72 78 143 0 54 -4 68 -29 100
-51 68 -151 87 -217 43z m115 -78 c52 -24 50 -107 -3 -129 -83 -34 -141 87
-61 127 31 16 33 16 64 2z m646 -691 c26 -28 26 -58 -1 -92 -44 -55 -119 -24
-119 51 0 58 78 85 120 41z m-195 -1423 c28 -27 31 -45 14 -78 -16 -30 -28
-37 -66 -37 -41 0 -77 42 -68 80 14 58 78 78 120 35z"/>
<path d="M1383 3129 c-10 -10 -13 -70 -13 -229 l0 -215 108 -108 107 -107 165
0 164 0 46 45 c43 43 47 44 80 35 69 -20 149 13 187 77 21 36 25 53 21 98 -18
214 -329 199 -328 -17 0 -23 5 -50 10 -58 7 -11 1 -23 -22 -47 l-32 -33 -131
0 -130 0 -78 78 -77 77 0 163 0 162 120 0 c234 0 415 -33 588 -107 187 -81
368 -229 471 -388 l53 -80 -79 -3 c-55 -2 -79 1 -82 10 -2 6 -20 29 -40 50
-50 53 -112 68 -175 44 -67 -26 -99 -72 -104 -150 -4 -73 16 -112 78 -151 l40
-25 0 -215 0 -215 -189 0 c-159 0 -192 -3 -205 -16 -13 -12 -16 -41 -16 -155
l0 -139 -50 0 -50 0 0 154 0 154 -85 72 -85 72 0 154 0 154 103 0 c98 0 105
-1 127 -25 21 -22 24 -36 24 -104 1 -94 17 -123 86 -158 55 -29 92 -29 147 -2
55 27 93 88 93 149 0 114 -120 200 -223 161 -21 -8 -30 -4 -68 35 l-43 44
-156 0 c-108 0 -160 -4 -168 -12 -9 -9 -12 -73 -12 -228 l0 -216 85 -73 85
-72 0 -129 0 -128 -107 -4 -108 -4 -207 -209 -208 -210 0 -207 c0 -169 -3
-208 -14 -208 -24 0 -68 -42 -87 -84 -23 -52 -23 -90 0 -142 53 -116 225 -126
292 -17 48 78 14 208 -62 236 l-29 11 0 191 0 190 178 178 177 177 448 0 447
0 80 160 80 160 0 90 0 90 105 0 105 0 0 -104 c0 -95 -3 -110 -30 -168 -16
-34 -30 -70 -30 -79 0 -9 47 -144 105 -299 58 -155 105 -284 105 -286 0 -2
-49 -4 -109 -4 -92 0 -112 -3 -132 -19 l-24 -19 29 -89 c16 -48 31 -93 33 -99
2 -6 -15 -16 -39 -23 -111 -34 -120 -56 -58 -143 l39 -55 -38 -31 -39 -31 -4
-99 c-4 -110 -23 -153 -81 -187 -57 -34 -248 -2 -437 72 -236 93 -425 221
-516 349 -60 83 -84 162 -84 268 0 68 -3 86 -18 99 -24 22 -38 21 -62 -3 -23
-23 -27 -93 -9 -200 40 -252 319 -490 735 -629 274 -92 388 -94 482 -8 63 59
82 104 82 203 l0 81 50 42 c28 24 50 51 50 62 0 10 -13 38 -30 61 -16 22 -30
44 -30 49 0 4 22 15 49 24 74 24 78 32 52 120 -11 40 -24 81 -27 89 -5 14 6
16 79 16 77 0 88 3 116 26 55 46 53 60 -64 374 l-106 285 30 70 c30 68 31 73
31 230 0 180 -17 318 -56 445 -124 406 -458 707 -904 812 -109 25 -556 39
-577 17z m756 -375 c12 -15 21 -34 21 -44 0 -33 -39 -70 -74 -70 -60 0 -93 66
-56 113 29 37 80 37 109 1z m285 -283 c23 -25 23 -76 1 -101 -27 -30 -78 -27
-104 6 -12 15 -21 34 -21 44 0 10 9 29 21 44 25 32 77 36 103 7z m327 -128
c20 -51 57 -207 64 -270 l7 -63 -132 0 c-72 0 -140 -5 -151 -10 -17 -10 -19
-22 -19 -125 l0 -115 -62 -125 -63 -125 -192 0 -193 0 0 105 0 105 189 0 c159
0 192 3 205 16 14 13 16 52 16 267 l1 252 40 28 c22 15 48 41 57 57 l17 30
103 0 102 0 11 -27z m-641 -163 c11 -11 20 -33 20 -50 0 -17 -9 -39 -20 -50
-11 -11 -33 -20 -50 -20 -17 0 -39 9 -50 20 -11 11 -20 33 -20 50 0 17 9 39
20 50 11 11 33 20 50 20 17 0 39 -9 50 -20z m-907 -1617 c37 -34 11 -105 -43
-118 -39 -9 -80 27 -80 70 0 65 72 93 123 48z"/>
<path d="M1186 3004 c-14 -13 -16 -47 -16 -221 l0 -206 95 -96 95 -97 0 -360
0 -359 -175 -175 -175 -175 0 172 c0 161 1 172 19 178 11 3 33 21 50 40 99
113 28 275 -121 275 -91 0 -157 -59 -165 -147 -6 -64 27 -130 79 -158 l38 -20
0 -241 c0 -221 2 -242 18 -257 10 -10 25 -17 32 -17 8 0 123 109 257 242 l243
242 0 396 0 395 -95 95 -95 95 0 195 c0 139 -3 199 -12 208 -17 17 -54 15 -72
-4z m-181 -1139 c46 -45 19 -118 -43 -118 -43 0 -72 28 -72 70 0 67 68 96 115
48z"/>
<path d="M222 2010 c-63 -39 -94 -121 -72 -193 13 -43 70 -107 96 -107 12 0
14 -29 14 -169 l0 -169 -31 -12 c-37 -16 -78 -74 -86 -124 -8 -51 20 -120 64
-153 48 -37 124 -43 180 -14 114 58 118 228 6 288 l-33 18 0 167 c0 132 3 168
13 168 27 0 85 66 97 109 19 72 -12 154 -74 192 -43 26 -130 26 -174 -1z m141
-98 c37 -32 10 -104 -43 -117 -38 -9 -80 27 -80 69 0 65 71 93 123 48z m0
-654 c53 -62 -31 -149 -96 -98 -45 36 -33 103 23 123 23 8 53 -2 73 -25z"/>
</g>
</svg>
